# xmcd
#
# Track frame offsets:
#	182
#	2470
#	12555
#	23197
#	37282
#	49680
#	60117
#	71427
#	82470
#	93532
#	103280
#	112962
#	125290
#	133745
#	143182
#	151205
#	153312
#	166090
#
# Disc length: 2407 seconds
#
# Revision: 0
# Processed by: cddbd v1.5.2PL0 Copyright (c) Steve Scherf et al.
# Submitted via: audiograbber 1.83.01
#
DISCID=eb096512
DTITLE=Die Doofen - Lieder die die Welt nicht braucht
DYEAR=1995
DGENRE=Comedy
TTITLE0=Prolog
TTITLE1=FKK
TTITLE2=Toastbrotbaby
TTITLE3=Mief!
TTITLE4=Ich bau dir ein Haus
TTITLE5=Schnuckibärchen
TTITLE6=Es geht ein Pollunder auf Reisen
TTITLE7=Der Große Onkel QuetschungsBlues
TTITLE8=Muh, Muh, Muh
TTITLE9=Ein Hoch auf das Fest der Liebe
TTITLE10=MöbelModel
TTITLE11=Warum?
TTITLE12=Jesus
TTITLE13=Tuff, Tuff, Tuff
TTITLE14=Hatschi Halef Omar
TTITLE15=Bänderdehnung in der Unterhose
TTITLE16=Volltreffer
TTITLE17=Segelohr
EXTD=
EXTT0=
EXTT1=
EXTT2=
EXTT3=
EXTT4=
EXTT5=
EXTT6=
EXTT7=
EXTT8=
EXTT9=
EXTT10=
EXTT11=
EXTT12=
EXTT13=
EXTT14=
EXTT15=
EXTT16=
EXTT17=
PLAYORDER=
